<svg width="24.986328" height="21.608398" viewBox="0 0 24.9863 21.6084" fill="none" xmlns="http://www.w3.org/2000/svg" xmlns:xlink="http://www.w3.org/1999/xlink">
	<desc>
			Created with Pixso.
	</desc>
	<defs>
		<clipPath id="clip2_6906">
			<rect id="Icons-dribbble" width="14.575342" height="12.604972" transform="translate(5.205566 4.501953)" fill="white" fill-opacity="0"/>
		</clipPath>
	</defs>
	<ellipse id="Ellipse 9" cx="12.493164" cy="10.804199" rx="12.493151" ry="10.804261" fill="#FFB400" fill-opacity="1.000000"/>
	<rect id="Icons-dribbble" width="14.575342" height="12.604972" transform="translate(5.205566 4.501953)" fill="#FFFFFF" fill-opacity="0"/>
	<rect id="Icons-dribbble" width="14.575342" height="12.604972" transform="translate(5.205566 4.501953)" fill="#FFFFFF" fill-opacity="0"/>
	<rect id="Icons-dribbble" width="14.575342" height="12.604972" transform="translate(5.205566 4.501953)" fill="#FFFFFF" fill-opacity="0"/>
	<g clip-path="url(#clip2_6906)">
		<path id="Vector" d="M17.34 10.58C17.29 9.75 16.96 8.95 16.38 8.29C16.21 8.45 16.02 8.6 15.83 8.75C15.22 9.18 14.54 9.54 13.81 9.8C13.91 9.99 14.01 10.16 14.09 10.33L14.09 10.33C14.11 10.38 14.14 10.43 14.16 10.48C15.08 10.39 16.05 10.42 16.99 10.53C17.11 10.54 17.23 10.56 17.34 10.58ZM11.64 6.66C12.23 7.38 12.78 8.13 13.28 8.9C14.02 8.65 14.63 8.33 15.13 7.98C15.3 7.85 15.46 7.72 15.61 7.58C14.74 6.94 13.63 6.6 12.49 6.6C12.2 6.6 11.92 6.62 11.64 6.66L11.64 6.66ZM7.78 9.75C8.2 9.74 8.61 9.72 9.02 9.68C10.02 9.61 11.01 9.46 11.98 9.25C11.47 8.49 10.92 7.75 10.33 7.03C9.71 7.3 9.16 7.68 8.72 8.15C8.28 8.62 7.96 9.16 7.78 9.75ZM8.71 13.44C8.95 13.15 9.26 12.81 9.67 12.45C10.55 11.66 11.59 11.06 12.8 10.72L12.84 10.71C12.74 10.52 12.64 10.35 12.55 10.19C11.43 10.47 10.26 10.64 9.09 10.73C8.52 10.78 8.01 10.8 7.63 10.8C7.63 11.76 8.01 12.7 8.71 13.44L8.71 13.44ZM14.31 14.69C14.08 13.67 13.75 12.67 13.32 11.7C12.11 12.08 11.14 12.64 10.39 13.3C10.09 13.57 9.82 13.86 9.59 14.17C10.43 14.71 11.44 15 12.49 15C13.11 15 13.73 14.9 14.31 14.7L14.31 14.69ZM15.45 14.13C16.4 13.5 17.04 12.59 17.26 11.57C17.06 11.53 16.8 11.48 16.51 11.45C15.87 11.37 15.22 11.36 14.58 11.43C14.94 12.31 15.23 13.21 15.45 14.13L15.45 14.13ZM12.49 16.05C9.13 16.05 6.41 13.7 6.41 10.8C6.41 7.9 9.13 5.55 12.49 5.55C15.84 5.55 18.56 7.9 18.56 10.8C18.56 13.7 15.84 16.05 12.49 16.05Z" fill="#2B2B2B" fill-opacity="1.000000" fill-rule="nonzero"/>
	</g>
</svg>
