<svg width="68.000000" height="68.000000" viewBox="0 0 68 68" fill="none" xmlns="http://www.w3.org/2000/svg" xmlns:xlink="http://www.w3.org/1999/xlink">
	<desc>
			Created with Pixso.
	</desc>
	<defs>
		<clipPath id="clip2_6154">
			<rect width="68.000000" height="68.000000" fill="white" fill-opacity="0"/>
		</clipPath>
	</defs>
	<rect width="68.000000" height="68.000000" fill="#FFFFFF" fill-opacity="0"/>
	<rect width="68.000000" height="68.000000" fill="#FFFFFF" fill-opacity="0"/>
	<rect width="68.000000" height="68.000000" fill="#FFFFFF" fill-opacity="0"/>
	<rect width="68.000000" height="68.000000" fill="#FFFFFF" fill-opacity="0"/>
	<g clip-path="url(#clip2_6154)">
		<path d="M29.75 35.06L38.25 35.06L38.25 37.18L29.75 37.18L29.75 35.06Z" fill="#FFB400" fill-opacity="1.000000" fill-rule="nonzero"/>
		<path d="M32.93 31.87L35.06 31.87L35.06 40.37L32.93 40.37L32.93 31.87Z" fill="#FFB400" fill-opacity="1.000000" fill-rule="nonzero"/>
		<path d="M60.56 35.06L62.68 35.06L62.68 37.18L60.56 37.18L60.56 35.06Z" fill="#FFB400" fill-opacity="1.000000" fill-rule="nonzero"/>
		<path d="M52.06 35.06L54.18 35.06L54.18 37.18L52.06 37.18L52.06 35.06Z" fill="#FFB400" fill-opacity="1.000000" fill-rule="nonzero"/>
		<path d="M56.31 30.81L58.43 30.81L58.43 32.93L56.31 32.93L56.31 30.81Z" fill="#FFB400" fill-opacity="1.000000" fill-rule="nonzero"/>
		<path d="M56.31 39.31L58.43 39.31L58.43 41.43L56.31 41.43L56.31 39.31Z" fill="#FFB400" fill-opacity="1.000000" fill-rule="nonzero"/>
		<path d="M9.79 18.72L5.01 12.75L9.79 6.77L11.45 8.1L7.73 12.75L11.45 17.39L9.79 18.72Z" fill="#FFB400" fill-opacity="1.000000" fill-rule="nonzero"/>
		<path d="M26.32 18.72L24.67 17.39L28.39 12.75L24.67 8.1L26.32 6.77L31.1 12.75L26.32 18.72Z" fill="#FFB400" fill-opacity="1.000000" fill-rule="nonzero"/>
		<path d="M13.54 16.29L20.98 7.8L22.58 9.2L15.14 17.69L13.54 16.29Z" fill="#FFB400" fill-opacity="1.000000" fill-rule="nonzero"/>
		<path d="M8.5 46.75L4.25 46.75L4.25 42.5L6.37 42.5L6.37 44.62L8.5 44.62L8.5 46.75Z" fill="#FFB400" fill-opacity="1.000000" fill-rule="nonzero"/>
		<path d="M64.81 2.12L3.18 2.12C1.42 2.12 0 3.55 0 5.31L0 47.81C0 49.57 1.42 51 3.18 51L25.5 51L25.5 56.31C25.5 58.07 24.07 59.5 22.31 59.5L17 59.5L17 65.87L51 65.87L51 59.5L45.68 59.5C43.92 59.5 42.5 58.07 42.5 56.31L42.5 51L64.81 51C66.57 51 68 49.57 68 47.81L68 5.31C68 3.55 66.57 2.12 64.81 2.12ZM48.87 61.62L48.87 63.75L19.12 63.75L19.12 61.62L48.87 61.62ZM34 57.41C35.76 57.41 37.18 55.99 37.18 54.23L37.18 51L40.37 51L40.37 56.31C40.37 57.46 40.76 58.58 41.46 59.5L26.53 59.5C27.23 58.58 27.62 57.46 27.62 56.31L27.62 51L30.81 51L30.81 54.23C30.81 55.99 32.23 57.41 34 57.41ZM32.93 54.23L32.93 51L35.06 51L35.06 54.23C35.06 54.81 34.58 55.29 34 55.29C33.41 55.29 32.93 54.81 32.93 54.23ZM65.87 47.81C65.87 48.39 65.39 48.87 64.81 48.87L3.18 48.87C2.6 48.87 2.12 48.39 2.12 47.81L2.12 38.25L23.58 38.25C24.46 42.57 27.93 45.9 32.28 46.61C36.64 47.32 40.98 45.26 43.18 41.43L48.18 41.43C49.96 44.53 53.18 46.52 56.75 46.73C60.31 46.94 63.74 45.33 65.87 42.47L65.87 47.81ZM57.37 44.62C54.14 44.63 51.19 42.79 49.76 39.9L49.47 39.31L41.89 39.31L41.6 39.9C39.74 43.65 35.41 45.49 31.41 44.22C27.42 42.95 24.94 38.96 25.59 34.81C26.23 30.67 29.8 27.62 34 27.62L57.37 27.62C62.06 27.62 65.87 31.43 65.87 36.12C65.87 40.81 62.06 44.62 57.37 44.62ZM65.87 29.77C63.87 27.08 60.72 25.5 57.37 25.5L34 25.5C28.13 25.5 23.38 30.25 23.37 36.12L2.12 36.12L2.12 5.31C2.12 4.72 2.6 4.25 3.18 4.25L64.81 4.25C65.39 4.25 65.87 4.72 65.87 5.31L65.87 29.77Z" fill="#FFB400" fill-opacity="1.000000" fill-rule="nonzero"/>
		<path d="M43.56 35.06L47.81 35.06L47.81 37.18L43.56 37.18L43.56 35.06Z" fill="#FFB400" fill-opacity="1.000000" fill-rule="nonzero"/>
		<path d="M31.87 8.5L40.37 8.5L40.37 10.62L31.87 10.62L31.87 8.5Z" fill="#FFB400" fill-opacity="1.000000" fill-rule="nonzero"/>
		<path d="M44.62 8.5L61.62 8.5L61.62 10.62L44.62 10.62L44.62 8.5Z" fill="#FFB400" fill-opacity="1.000000" fill-rule="nonzero"/>
		<path d="M46.75 12.75L61.62 12.75L61.62 14.87L46.75 14.87L46.75 12.75Z" fill="#FFB400" fill-opacity="1.000000" fill-rule="nonzero"/>
		<path d="M34 12.75L42.5 12.75L42.5 14.87L34 14.87L34 12.75Z" fill="#FFB400" fill-opacity="1.000000" fill-rule="nonzero"/>
		<path d="M31.87 17L53.12 17L53.12 19.12L31.87 19.12L31.87 17Z" fill="#FFB400" fill-opacity="1.000000" fill-rule="nonzero"/>
		<path d="M57.37 17L61.62 17L61.62 19.12L57.37 19.12L57.37 17Z" fill="#FFB400" fill-opacity="1.000000" fill-rule="nonzero"/>
		<path d="M6.37 21.25L17 21.25L17 23.37L6.37 23.37L6.37 21.25Z" fill="#FFB400" fill-opacity="1.000000" fill-rule="nonzero"/>
		<path d="M21.25 21.25L41.43 21.25L41.43 23.37L21.25 23.37L21.25 21.25Z" fill="#FFB400" fill-opacity="1.000000" fill-rule="nonzero"/>
		<path d="M44.62 21.25L61.62 21.25L61.62 23.37L44.62 23.37L44.62 21.25Z" fill="#FFB400" fill-opacity="1.000000" fill-rule="nonzero"/>
		<path d="M6.37 25.5L23.37 25.5L23.37 27.62L6.37 27.62L6.37 25.5Z" fill="#FFB400" fill-opacity="1.000000" fill-rule="nonzero"/>
		<path d="M6.37 29.75L14.87 29.75L14.87 31.87L6.37 31.87L6.37 29.75Z" fill="#FFB400" fill-opacity="1.000000" fill-rule="nonzero"/>
		<path d="M17 29.75L21.25 29.75L21.25 31.87L17 31.87L17 29.75Z" fill="#FFB400" fill-opacity="1.000000" fill-rule="nonzero"/>
	</g>
</svg>
