<svg width="68.000000" height="68.000000" viewBox="0 0 68 68" fill="none" xmlns="http://www.w3.org/2000/svg" xmlns:xlink="http://www.w3.org/1999/xlink">
	<desc>
			Created with Pixso.
	</desc>
	<defs>
		<clipPath id="clip2_6020">
			<rect id="Icons/Photographer" width="68.000000" height="68.000000" fill="white" fill-opacity="0"/>
		</clipPath>
	</defs>
	<rect id="Icons/Photographer" width="68.000000" height="68.000000" fill="#FFFFFF" fill-opacity="0"/>
	<rect id="Icons/Photographer" width="68.000000" height="68.000000" fill="#FFFFFF" fill-opacity="0"/>
	<rect id="Icons/Photographer" width="68.000000" height="68.000000" fill="#FFFFFF" fill-opacity="0"/>
	<rect id="Icons/Photographer" width="68.000000" height="68.000000" fill="#FFFFFF" fill-opacity="0"/>
	<rect id="Icons/Photographer" width="68.000000" height="68.000000" fill="#FFFFFF" fill-opacity="0"/>
	<g clip-path="url(#clip2_6020)">
		<path id="Vector" d="M48.25 63.61L65.13 63.61L60.8 50.61C59.66 47.21 56.77 44.69 53.25 44.03L41.67 41.86L41.67 39.18C44.45 37.18 46.4 34.13 46.97 30.61C49.56 30.18 51.54 27.93 51.54 25.22L51.54 17.54C51.54 7.87 43.67 0 34 0C24.32 0 16.45 7.87 16.45 17.54L16.45 25.22C16.45 27.93 18.42 30.18 21 30.63C21.57 34.14 23.54 37.2 26.32 39.2L26.32 41.86L14.74 44.03C11.22 44.69 8.33 47.21 7.19 50.61L2.86 63.61L19.74 63.61L19.74 61.41L16.75 61.41L18.61 54L16.48 53.47L14.49 61.41L5.9 61.41L9.27 51.3C10.15 48.66 12.4 46.7 15.14 46.19L22.13 44.88L23.92 52.91C22.75 53.42 21.93 54.58 21.93 55.93L21.93 64.7C21.93 66.52 23.41 68 25.22 68L42.77 68C44.58 68 46.06 66.52 46.06 64.7L46.06 55.93C46.06 54.58 45.24 53.42 44.08 52.91L45.86 44.88L52.85 46.19C55.59 46.7 57.84 48.66 58.72 51.3L62.09 61.41L53.5 61.41L51.51 53.47L49.38 54L51.24 61.41L48.25 61.41L48.25 63.61ZM43.7 44.47L42.19 51.29L41.43 48.25L36.64 48.25L40.94 43.95L43.7 44.47ZM40.27 52.64L27.72 52.64L28.27 50.45L39.72 50.45L40.27 52.64ZM34 47.8L28.51 42.32L28.51 40.47C30.18 41.24 32.04 41.67 34 41.67C35.95 41.67 37.81 41.23 39.48 40.46L39.48 42.32L34 47.8ZM47.16 28.31L47.16 22.13C48.43 22.59 49.35 23.79 49.35 25.22C49.35 26.65 48.43 27.86 47.16 28.31ZM20.83 28.32C19.56 27.87 18.64 26.65 18.64 25.22C18.64 23.79 19.56 22.57 20.83 22.12L20.83 28.32ZM18.64 20.86L18.64 17.54C18.64 9.08 25.53 2.19 34 2.19C42.46 2.19 49.35 9.08 49.35 17.54L49.35 20.86C48.7 20.37 47.95 20.01 47.12 19.84C46.95 18.55 45.85 17.54 44.51 17.54C43.81 17.54 43.13 17.83 42.58 18.37C40.73 20.23 38.38 21.41 35.84 21.79L35.91 21.65C36.09 21.29 36.19 20.88 36.19 20.47L36.19 20.19C36.19 18.73 35 17.54 33.54 17.54C32.84 17.54 32.16 17.83 31.67 18.32C29.36 20.63 26.29 21.91 23.03 21.93L23.03 19.74L21.93 19.74C20.69 19.74 19.56 20.17 18.64 20.86ZM23.03 28.51L23.03 24.12C26.88 24.1 30.5 22.59 33.22 19.87C33.48 19.61 34 19.82 34 20.19L34 20.47C34 20.54 33.98 20.61 33.95 20.67L32.22 24.12L34 24.12C37.82 24.12 41.42 22.63 44.19 19.87C44.45 19.61 44.96 19.82 44.96 20.19L44.96 28.51C44.96 34.56 40.04 39.48 34 39.48C27.95 39.48 23.03 34.56 23.03 28.51ZM27.05 43.95L31.35 48.25L26.56 48.25L25.8 51.29L24.29 44.47L27.05 43.95ZM25.22 65.8C24.62 65.8 24.12 65.31 24.12 64.7L24.12 55.93C24.12 55.33 24.62 54.83 25.22 54.83L28.63 54.83C27.21 56.23 26.32 58.17 26.32 60.32C26.32 62.47 27.21 64.41 28.63 65.8L25.22 65.8ZM34 65.8C30.97 65.8 28.51 63.34 28.51 60.32C28.51 57.29 30.97 54.83 34 54.83C37.02 54.83 39.48 57.29 39.48 60.32C39.48 63.34 37.02 65.8 34 65.8ZM43.87 64.7C43.87 65.31 43.37 65.8 42.77 65.8L39.36 65.8C40.78 64.41 41.67 62.47 41.67 60.32C41.67 58.17 40.78 56.23 39.36 54.83L42.77 54.83C43.37 54.83 43.87 55.33 43.87 55.93L43.87 64.7Z" fill="#FFB400" fill-opacity="1.000000" fill-rule="nonzero"/>
		<path id="Vector" d="M34 57.03C32.18 57.03 30.7 58.5 30.7 60.32C30.7 62.13 32.18 63.61 34 63.61C35.81 63.61 37.29 62.13 37.29 60.32C37.29 58.5 35.81 57.03 34 57.03ZM34 61.41C33.39 61.41 32.9 60.92 32.9 60.32C32.9 59.71 33.39 59.22 34 59.22C34.6 59.22 35.09 59.71 35.09 60.32C35.09 60.92 34.6 61.41 34 61.41Z" fill="#FFB400" fill-opacity="1.000000" fill-rule="nonzero"/>
	</g>
</svg>
