<svg width="68.000000" height="68.000000" viewBox="0 0 68 68" fill="none" xmlns="http://www.w3.org/2000/svg" xmlns:xlink="http://www.w3.org/1999/xlink">
	<desc>
			Created with Pixso.
	</desc>
	<defs>
		<clipPath id="clip2_6360">
			<rect id="Icons/Microphone" width="68.000000" height="68.000000" fill="white" fill-opacity="0"/>
		</clipPath>
	</defs>
	<rect id="Icons/Microphone" width="68.000000" height="68.000000" fill="#FFFFFF" fill-opacity="0"/>
	<rect id="Icons/Microphone" width="68.000000" height="68.000000" fill="#FFFFFF" fill-opacity="0"/>
	<rect id="Icons/Microphone" width="68.000000" height="68.000000" fill="#FFFFFF" fill-opacity="0"/>
	<rect id="Icons/Microphone" width="68.000000" height="68.000000" fill="#FFFFFF" fill-opacity="0"/>
	<rect id="Icons/Microphone" width="68.000000" height="68.000000" fill="#FFFFFF" fill-opacity="0"/>
	<g clip-path="url(#clip2_6360)">
		<path id="Vector" d="M34 0C26.66 0 20.69 6.2 20.69 13.83L20.69 34C20.69 41.62 26.66 47.83 34 47.83C41.33 47.83 47.3 41.62 47.3 34L47.3 13.83C47.3 6.2 41.33 0 34 0ZM34 44.87C28.77 44.87 24.44 40.77 23.75 35.47L44.24 35.47C43.55 40.77 39.22 44.87 34 44.87ZM44.34 32.52L23.65 32.52L23.65 13.83C23.65 7.83 28.29 2.95 34 2.95C39.7 2.95 44.34 7.83 44.34 13.83L44.34 32.52Z" fill="#FFB400" fill-opacity="1.000000" fill-rule="nonzero"/>
		<path id="Vector" d="M54.69 26.6C53.87 26.6 53.21 27.27 53.21 28.08L53.21 34C53.21 44.59 44.59 53.21 34 53.21C23.4 53.21 14.78 44.59 14.78 34L14.78 28.08C14.78 27.27 14.12 26.6 13.3 26.6C12.48 26.6 11.82 27.27 11.82 28.08L11.82 34C11.82 45.72 20.98 55.33 32.52 56.09L32.52 65.04L25.13 65.04C24.31 65.04 23.65 65.7 23.65 66.52C23.65 67.33 24.31 68 25.13 68L42.86 68C43.68 68 44.34 67.33 44.34 66.52C44.34 65.7 43.68 65.04 42.86 65.04L35.47 65.04L35.47 56.09C47.01 55.33 56.17 45.72 56.17 34L56.17 28.08C56.17 27.27 55.51 26.6 54.69 26.6Z" fill="#FFB400" fill-opacity="1.000000" fill-rule="nonzero"/>
	</g>
</svg>
