<svg width="154.000000" height="51.000000" viewBox="0 0 154 51" fill="none" xmlns="http://www.w3.org/2000/svg" xmlns:xlink="http://www.w3.org/1999/xlink">
	<desc>
			Created with Pixso.
	</desc>
	<defs>
		<clipPath id="clip3_228">
			<rect id="Frame" width="16.000000" height="16.000000" transform="translate(106.000000 17.000000)" fill="white" fill-opacity="0"/>
		</clipPath>
	</defs>
	<rect id="Button/Hire me" rx="5.000000" width="154.000000" height="51.000000" fill="#FFB400" fill-opacity="1.000000"/>
	<path id="HIRE ME" d="M35.33 32L33.57 32L33.57 20.36L35.33 20.36L35.33 25.42L41.13 25.42L41.13 20.36L42.89 20.36L42.89 32L41.13 32L41.13 26.92L35.33 26.92L35.33 32ZM45.45 20.36L47.2 20.36L47.2 32L45.45 32L45.45 20.36ZM51.52 32L49.76 32L49.76 20.36L53.91 20.36C56.61 20.36 57.93 21.87 57.93 24.01C57.93 25.57 57.23 26.76 55.8 27.28L58.38 32L56.38 32L54.02 27.59L51.52 27.59L51.52 32ZM67.44 32L60.08 32L60.08 20.36L67.37 20.36L67.37 21.87L61.83 21.87L61.83 25.42L66.99 25.42L66.99 26.92L61.83 26.92L61.83 30.48L67.44 30.48L67.44 32ZM73.96 32L73.96 20.36L76.1 20.36L79.8 29.41L79.94 29.41L83.64 20.36L85.77 20.36L85.77 32L84.1 32L84.1 23.57L83.99 23.57L80.56 31.98L79.17 31.98L75.74 23.57L75.63 23.57L75.63 32L73.96 32ZM95.69 32L88.33 32L88.33 20.36L95.62 20.36L95.62 21.87L90.08 21.87L90.08 25.42L95.24 25.42L95.24 26.92L90.08 26.92L90.08 30.48L95.69 30.48L95.69 32ZM51.52 21.87L51.52 26.08L53.74 26.08C55.45 26.08 56.17 25.32 56.17 24.01C56.17 22.69 55.45 21.87 53.72 21.87L51.52 21.87Z" fill="#18191A" fill-opacity="1.000000" fill-rule="evenodd"/>
	<rect id="Frame" width="16.000000" height="16.000000" transform="translate(106.000000 17.000000)" fill="#FFFFFF" fill-opacity="0"/>
	<g clip-path="url(#clip3_228)">
		<path id="Vector" d="M116.78 24.33L113.2 20.75L114.14 19.81L119.33 25L114.14 30.18L113.2 29.24L116.78 25.66L108.66 25.66L108.66 24.33L116.78 24.33Z" fill="#18191A" fill-opacity="1.000000" fill-rule="nonzero"/>
	</g>
</svg>
